
<svg xmlns="http://www.w3.org/2000/svg" height="512px" viewBox="0 -40 480 480" width="512px">
    <path d="m472 0h-464c-4.417969 0-8 3.582031-8 8v384c0 4.417969 3.582031 8 8 8h464c4.417969 
    0 8-3.582031 8-8v-384c0-4.417969-3.582031-8-8-8zm-8 384h-448v-368h448zm0 0" fill="#006DF0"/>
    <path d="m48 48h72v-16h-80c-4.417969 0-8 3.582031-8 8v80h16zm0 0" fill="#006DF0"/>
    <path d="m40 368h80v-16h-72v-72h-16v80c0 4.417969 3.582031 8 8 8zm0 0" fill="#006DF0"/>
    <path d="m432 120h16v-80c0-4.417969-3.582031-8-8-8h-80v16h72zm0 0" fill="#006DF0"/>
    <path d="m432 352h-72v16h80c4.417969 0 8-3.582031 8-8v-80h-16zm0 0" fill="#006DF0"/>
    <path d="m224 224h32c4.417969 0 8-3.582031 8-8v-32c0-4.417969-3.582031-8-8-8h-32c-4.417969
    0-8 3.582031-8 8v32c0 4.417969 3.582031 8 8 8zm8-32h16v16h-16zm0 0" fill="#006DF0"/>
    <path d="m160 224h32c4.417969 0 8-3.582031 8-8v-32c0-4.417969-3.582031-8-8-8h-32c-4.417969
    0-8 3.582031-8 8v32c0 4.417969 3.582031 8 8 8zm8-32h16v16h-16zm0 0" fill="#006DF0"/>
    <path d="m88 184v32c0 4.417969 3.582031 8 8 8h32c4.417969 0 8-3.582031 8-8v-32c0-4.417969-3.582031-8-8-8h-32c-4.417969
    0-8 3.582031-8 8zm16 8h16v16h-16zm0 0" fill="#006DF0"/>
    <path d="m288 224h32c4.417969 0 8-3.582031 8-8v-32c0-4.417969-3.582031-8-8-8h-32c-4.417969
    0-8 3.582031-8 8v32c0 4.417969 3.582031 8 8 8zm8-32h16v16h-16zm0 0" fill="#006DF0"/>
    <path d="m288 288h32c4.417969 0 8-3.582031 8-8v-32c0-4.417969-3.582031-8-8-8h-32c-4.417969
    0-8 3.582031-8 8v32c0 4.417969 3.582031 8 8 8zm8-32h16v16h-16zm0 0" fill="#006DF0"/>
    <path d="m352 224h32c4.417969 0 8-3.582031 8-8v-32c0-4.417969-3.582031-8-8-8h-32c-4.417969
    0-8 3.582031-8 8v32c0 4.417969 3.582031 8 8 8zm8-32h16v16h-16zm0 0" fill="#006DF0"/>
    <path d="m224 160h32c4.417969 0 8-3.582031 8-8v-32c0-4.417969-3.582031-8-8-8h-32c-4.417969
    0-8 3.582031-8 8v32c0 4.417969 3.582031 8 8 8zm8-32h16v16h-16zm0 0" fill="#006DF0"/>
    <path d="m224 96h32c4.417969 0 8-3.582031 8-8v-32c0-4.417969-3.582031-8-8-8h-32c-4.417969
    0-8 3.582031-8 8v32c0 4.417969 3.582031 8 8 8zm8-32h16v16h-16zm0 0" fill="#006DF0"/>
    <path d="m224 288h32c4.417969 0 8-3.582031 8-8v-32c0-4.417969-3.582031-8-8-8h-32c-4.417969
    0-8 3.582031-8 8v32c0 4.417969 3.582031 8 8 8zm8-32h16v16h-16zm0 0" fill="#006DF0"/>
    <path d="m160 288h32c4.417969 0 8-3.582031 8-8v-32c0-4.417969-3.582031-8-8-8h-32c-4.417969
    0-8 3.582031-8 8v32c0 4.417969 3.582031 8 8 8zm8-32h16v16h-16zm0 0" fill="#006DF0"/>
    <path d="m160 160h32c4.417969 0 8-3.582031 8-8v-32c0-4.417969-3.582031-8-8-8h-32c-4.417969
    0-8 3.582031-8 8v32c0 4.417969 3.582031 8 8 8zm8-32h16v16h-16zm0 0" fill="#006DF0"/>
    <path d="m288 160h32c4.417969 0 8-3.582031 8-8v-32c0-4.417969-3.582031-8-8-8h-32c-4.417969
    0-8 3.582031-8 8v32c0 4.417969 3.582031 8 8 8zm8-32h16v16h-16zm0 0" fill="#006DF0"/>
    <path d="m224 352h32c4.417969 0 8-3.582031 8-8v-32c0-4.417969-3.582031-8-8-8h-32c-4.417969
    0-8 3.582031-8 8v32c0 4.417969 3.582031 8 8 8zm8-32h16v16h-16zm0 0" fill="#006DF0"/>
</svg>
