<svg xmlns="http://www.w3.org/2000/svg" xmlns:xlink="http://www.w3.org/1999/xlink" viewBox="0 0 1000 1000" enable-background="new 0 0 1000 1000" xml:space="preserve">
    <g><g transform="translate(0.000000,511.000000) scale(0.100000,-0.100000)"><path d="M4516.7,4988.1c-857.9-81.8-1748.5-430.1-2456.7-963.1C180.6,2613.2-434.1,67.7,596.7-2038.5C1309.6-3497.1,2677.1-4499.8,4290-4750c355.3-53.8,1077.6-56.1,1425.9,0c2152.8,336.6,3805.5,1989.2,4142.1,4142.1c56.1,353,56.1,1072.9,0,1425.9c-170.6,1094-689.6,2089.7-1482,2842.4C7345.1,4639.8,5930.9,5126,4516.7,4988.1z M5248.3,4754.4C5262.4,4738,2808,458,2747.2,390.2c-23.4-25.7-177.7,229.1-759.7,1234.2L1258.2,2889l100.5,130.9c151.9,196.3,542.3,582,769,759.7c832.2,645.1,1886.4,1005.1,2903.2,991.1C5140.8,4770.7,5239,4761.4,5248.3,4754.4z M5926.2,4674.9c1201.5-243.1,2267.4-956,2950-1975.2c144.9-217.4,273.5-441.8,259.5-458.2c-7-4.7-1140.7-7-2524.5-4.7l-2510.5,7l701.3,1215.5c388,668.5,712.9,1229.5,722.3,1245.9C5549.9,4745,5601.3,4740.4,5926.2,4674.9z M2394.2,444c701.3-1215.5,1276.3-2213.6,1276.3-2220.6s-661.5-11.7-1470.3-11.7h-1468l-88.8,229.1C241.4-509.7,234.4,673.1,624.8,1717.9c116.9,310.9,434.8,935,476.9,935C1111,2653,1693,1659.5,2394.2,444z M6590.1,1058.8c299.2-516.6,540-951.4,535.3-965.4c-4.7-16.4-247.8-446.4-542.3-956l-535.3-925.7H5002.9H3960.4l-537.6,928C3128.2-350.8,2887.5,84,2887.5,105.1c0,21,240.8,455.8,535.3,965.4l535.3,928h1044.9h1044.9L6590.1,1058.8z M9357.7,1781.1c357.6-932.7,404.4-1982.2,135.6-2940.6c-39.7-137.9-102.8-331.9-142.6-432.4c-91.2-226.7-331.9-698.9-404.4-790.1l-53.8-67.8L7618.6-245.6C6919.7,965.3,6344.6,1965.7,6340,1977.4c-4.7,11.7,633.5,21,1463.3,21h1470.3L9357.7,1781.1z M8030-1433l717.6-1245.9l-100.5-130.9c-56.1-72.5-215.1-245.4-350.6-381c-712.9-715.3-1631.6-1178.1-2629.7-1320.7c-261.8-37.4-881.2-58.4-909.3-30.4c-11.7,9.3,1119.7,1996.2,1463.3,2566.6c9.4,18.7,236.1,413.8,502.6,876.6c575,1002.8,547,956.1,570.4,932.7C7303-177.8,7634.9-748.1,8030-1433z M5624.7-2517.6c-156.6-273.5-479.2-832.1-715.3-1243.6c-236.1-409.1-446.5-750.3-462.8-757.3c-18.7-7-173,16.4-343.6,49.1C2903.8-4231,1819.2-3515.8,1150.7-2517.6c-140.2,208-285.2,451.2-285.2,479.2c0,9.4,1136,16.4,2524.5,16.4h2522.2L5624.7-2517.6z"/></g></g>
</svg>